<?xml version="1.0" standalone="no"?>
<!DOCTYPE svg PUBLIC "-//W3C//DTD SVG 20010904//EN"
 "http://www.w3.org/TR/2001/REC-SVG-20010904/DTD/svg10.dtd">
<svg version="1.0" xmlns="http://www.w3.org/2000/svg"
 width="959.000000pt" height="959.000000pt" viewBox="0 0 959.000000 959.000000"
 preserveAspectRatio="xMidYMid meet">
<metadata>
Created by potrace 1.14, written by Peter Selinger 2001-2017
</metadata>
<g transform="translate(0.000000,959.000000) scale(0.100000,-0.100000)"
fill="#000000" stroke="none">
<path d="M1630 8883 c-1 -257 -1 -1184 0 -1449 l0 -282 108 2 c59 1 117 -1
128 -5 12 -4 25 -5 28 -2 9 10 136 9 136 0 0 -5 6 -5 12 -1 17 11 148 11 148
1 0 -5 5 -5 12 -1 16 10 148 11 148 1 0 -5 6 -5 12 -1 18 11 148 11 148 0 0
-5 5 -5 13 0 16 12 1537 10 1538 -2 1 -21 -14 -80 -23 -91 -6 -7 -8 -13 -5
-13 3 0 -3 -26 -14 -57 -11 -32 -22 -65 -24 -73 -1 -8 -10 -41 -20 -72 -9 -32
-16 -60 -16 -63 0 -2 -6 -20 -15 -40 -8 -19 -15 -38 -15 -42 -2 -13 -28 -100
-74 -255 -15 -49 -28 -94 -29 -100 -2 -7 -6 -20 -9 -28 -7 -17 -34 -108 -47
-155 -4 -16 -25 -84 -45 -150 -21 -66 -39 -127 -40 -135 -1 -8 -5 -22 -8 -30
-9 -23 -75 -240 -83 -272 -1 -5 -3 -11 -4 -15 -1 -5 -2 -11 -1 -15 0 -5 -4 -8
-10 -8 -5 0 -8 -4 -5 -8 3 -5 -4 -32 -14 -60 -11 -29 -20 -54 -20 -57 0 -3 0
-6 -1 -7 0 -2 -2 -10 -4 -18 -1 -8 -24 -85 -50 -170 -60 -201 -97 -322 -100
-335 -1 -5 -5 -17 -8 -25 -3 -8 -13 -42 -22 -75 -9 -33 -19 -67 -22 -75 -3 -8
-7 -19 -9 -25 -1 -5 -12 -41 -24 -80 -12 -38 -23 -77 -25 -85 -2 -8 -10 -35
-18 -60 -8 -25 -25 -79 -37 -120 -12 -41 -25 -86 -30 -100 -7 -21 -40 -132
-45 -150 -8 -33 -39 -133 -50 -162 -8 -21 -13 -38 -10 -38 3 0 -1 -17 -9 -37
-14 -37 -52 -160 -96 -313 -12 -41 -24 -82 -27 -90 -3 -8 -7 -21 -9 -29 -1 -8
-10 -37 -19 -65 -10 -28 -19 -58 -21 -66 -5 -24 -75 -253 -81 -270 -3 -8 -8
-24 -10 -35 -2 -11 -12 -43 -23 -71 -10 -29 -16 -55 -12 -59 4 -4 1 -6 -7 -3
-13 4 -55 118 -44 118 3 0 0 7 -7 15 -7 8 -10 15 -7 15 3 0 0 15 -8 34 -8 18
-16 44 -19 57 -5 22 -15 59 -67 227 -37 123 -81 267 -89 297 -4 17 -13 44 -20
60 -6 17 -11 31 -11 33 1 1 1 3 0 5 0 1 -2 9 -4 17 -1 8 -13 45 -25 83 -12 37
-23 73 -24 80 -1 6 -14 51 -30 99 -15 48 -29 97 -31 108 -2 11 -7 25 -10 30
-3 5 -8 18 -10 27 -4 20 -53 190 -61 213 -3 8 -5 16 -5 17 0 2 -7 22 -15 45
-9 24 -17 52 -20 62 -2 11 -10 40 -18 65 -8 25 -16 55 -18 66 -2 11 -7 23 -11
26 -5 3 -10 17 -11 30 -3 20 -65 237 -84 289 -3 8 -6 20 -8 27 -3 17 -24 86
-32 103 -3 8 -7 20 -8 25 -1 6 -3 12 -4 15 -1 3 -3 12 -5 20 -2 8 -13 44 -24
79 -12 35 -21 70 -21 77 0 7 -8 17 -17 22 -14 6 -1957 9 -1995 3 -4 0 -1 -19
7 -41 8 -22 12 -40 9 -40 -2 0 1 -10 8 -22 6 -13 13 -29 14 -36 1 -8 6 -21 10
-30 4 -9 8 -21 9 -27 6 -24 47 -152 55 -170 5 -11 27 -81 50 -155 23 -74 46
-144 51 -155 4 -11 24 -72 45 -135 20 -63 54 -169 76 -235 22 -66 41 -127 43
-135 2 -8 16 -49 30 -90 14 -41 28 -83 30 -92 2 -10 17 -57 33 -105 60 -176
122 -368 127 -388 2 -11 17 -58 33 -105 43 -125 93 -278 96 -293 2 -6 6 -19 9
-27 4 -8 30 -87 57 -175 28 -88 57 -173 63 -190 6 -16 12 -33 13 -37 1 -5 3
-11 4 -15 2 -5 4 -12 5 -18 1 -5 7 -23 13 -38 7 -16 12 -34 12 -41 0 -7 3 -16
7 -20 4 -4 9 -19 11 -34 2 -14 7 -31 11 -37 8 -9 22 -58 21 -70 0 -3 7 -19 15
-35 9 -17 13 -30 11 -30 -2 0 6 -28 20 -62 13 -34 22 -64 19 -66 -3 -3 -1 -10
4 -16 5 -6 16 -38 26 -71 9 -33 22 -66 27 -72 6 -7 8 -13 5 -13 -3 0 17 -66
44 -147 27 -82 51 -157 54 -168 2 -11 29 -94 60 -185 31 -91 57 -173 58 -182
1 -10 4 -18 7 -18 4 0 7 -6 7 -12 0 -7 17 -62 37 -123 20 -60 45 -139 57 -175
11 -36 23 -72 26 -80 4 -8 8 -24 10 -34 2 -11 8 -24 13 -30 5 -7 11 -23 13
-36 2 -14 7 -32 10 -40 3 -8 18 -52 32 -97 l26 -83 1223 0 1223 0 21 58 c27
76 114 343 117 362 2 8 4 16 5 18 2 1 3 5 5 10 1 4 4 14 8 22 3 8 15 47 27 85
12 39 25 79 30 90 10 24 188 573 195 601 3 10 28 87 55 169 28 83 53 157 55
165 2 8 10 34 19 58 8 23 16 46 17 50 1 4 5 18 10 31 5 13 11 31 13 40 2 9 6
23 9 31 7 19 41 123 42 130 3 16 38 118 46 132 5 10 9 27 9 37 0 11 5 23 11
26 6 4 8 13 5 21 -3 8 -1 14 4 14 6 0 9 3 8 8 -2 4 3 27 11 52 21 72 22 75 21
78 0 1 6 15 15 32 8 16 15 38 15 50 0 11 5 20 12 20 6 0 9 3 6 6 -5 5 10 63
29 114 4 8 7 17 7 20 3 10 127 395 133 410 3 8 7 20 8 25 2 6 12 37 23 70 40
119 194 590 196 600 2 11 64 202 73 225 4 8 7 17 8 20 1 3 12 39 25 80 13 41
24 77 24 80 1 3 6 19 13 35 6 17 50 152 98 300 48 149 97 300 111 338 13 37
21 67 17 67 -4 0 -2 5 5 12 7 7 12 18 12 24 0 7 5 25 12 41 7 15 12 33 13 38
1 6 10 35 20 65 11 30 20 57 20 60 0 3 14 43 30 90 16 47 30 90 31 95 2 12
123 384 165 507 17 47 31 95 34 105 2 10 9 32 15 48 6 17 13 37 15 45 2 8 17
54 34 103 16 48 27 87 24 87 -3 0 -1 6 5 13 6 7 13 24 16 37 3 14 14 49 25 79
11 30 19 57 16 59 -3 3 -1 10 4 16 7 9 33 78 36 96 1 8 26 83 32 100 4 8 7 17
7 20 1 3 17 52 36 110 19 58 34 107 35 110 1 7 46 142 52 160 3 8 7 20 8 25 3
13 125 385 132 405 8 21 9 21 18 55 4 17 11 35 16 40 4 6 7 13 7 18 1 20 15
71 28 95 8 15 14 32 14 37 0 6 25 87 55 180 31 94 85 260 121 370 36 110 68
207 71 215 3 8 8 25 10 38 l4 22 -2546 0 -2545 0 0 -117z"/>
<path d="M7479 8985 c-2 -19 -3 -24 -16 -55 -6 -14 -20 -59 -33 -100 -12 -41
-28 -91 -35 -110 -16 -41 -114 -337 -120 -362 -4 -19 -93 -294 -102 -318 -7
-17 -5 -12 -23 -70 -7 -25 -14 -47 -15 -50 -1 -3 -5 -13 -9 -22 -4 -9 -9 -22
-10 -30 -2 -7 -6 -20 -9 -28 -7 -18 -30 -92 -33 -102 -1 -5 -3 -10 -4 -13 -1
-3 -4 -9 -5 -15 -1 -5 -3 -11 -5 -12 -1 -2 -3 -11 -5 -20 -3 -15 -13 -47 -43
-128 -3 -8 -6 -20 -7 -25 -2 -6 -28 -87 -59 -180 -31 -94 -56 -173 -56 -177 0
-4 -5 -19 -11 -35 -6 -15 -10 -28 -9 -28 1 0 -7 -22 -18 -50 -11 -27 -20 -52
-20 -55 0 -3 -3 -12 -6 -20 -2 -8 -57 -177 -121 -375 -64 -198 -123 -379 -131
-403 -9 -23 -17 -48 -18 -55 -2 -6 -6 -21 -10 -32 -26 -68 -34 -91 -35 -98 -1
-13 -74 -242 -80 -252 -3 -5 -6 -12 -6 -15 -1 -12 -47 -157 -55 -175 -11 -25
-90 -271 -95 -294 -2 -10 -10 -34 -19 -54 -8 -21 -15 -41 -16 -45 0 -11 -20
-74 -35 -112 -7 -19 -43 -129 -80 -245 -36 -115 -69 -217 -73 -225 -3 -8 -6
-19 -7 -25 0 -5 -7 -21 -15 -35 -7 -14 -12 -26 -11 -28 3 -3 -39 -143 -48
-157 -3 -5 -6 -15 -7 -21 -2 -13 -101 -320 -111 -344 -3 -8 -7 -20 -9 -27 -2
-13 -101 -317 -111 -343 -3 -8 -7 -19 -9 -25 -1 -5 -23 -75 -49 -155 -26 -80
-65 -199 -86 -265 -22 -66 -42 -127 -45 -135 -3 -8 -5 -15 -4 -15 0 0 -18 -54
-40 -120 -23 -66 -43 -127 -45 -135 -3 -14 -90 -282 -177 -545 -22 -66 -41
-124 -42 -130 -3 -14 -76 -237 -83 -255 -4 -8 -7 -17 -8 -20 -1 -3 -8 -25 -15
-50 -7 -25 -14 -47 -15 -50 -1 -3 -7 -18 -13 -33 -7 -16 -12 -32 -12 -37 0 -6
-16 -55 -34 -110 -19 -55 -32 -100 -29 -100 3 0 1 -6 -5 -13 -6 -7 -13 -24
-16 -37 -3 -14 -35 -113 -71 -220 -36 -107 -65 -202 -65 -211 0 -8 -4 -19 -9
-25 -7 -8 -86 -249 -82 -249 1 0 -5 -17 -13 -37 -9 -21 -16 -40 -16 -43 0 -3
472 -5 1049 -5 l1049 0 38 113 c21 61 39 114 39 117 8 33 19 67 24 75 3 6 6
15 7 20 1 6 16 53 34 105 17 52 33 102 35 110 2 8 34 105 70 215 37 110 68
205 69 210 1 6 11 35 21 65 11 30 20 57 20 60 3 15 98 310 110 340 13 33 26
72 31 95 1 6 28 87 59 180 31 94 58 177 60 185 2 8 23 71 45 140 23 69 43 132
45 140 2 8 12 40 23 70 27 74 113 341 117 363 2 9 7 23 12 30 4 6 8 17 9 24 2
14 51 168 63 198 5 11 15 43 24 70 9 28 50 156 92 285 43 129 78 240 80 245 1
6 5 17 8 25 3 8 22 67 42 130 20 63 39 122 42 130 4 8 7 17 8 20 0 3 6 21 13
41 7 20 14 45 17 55 2 10 15 49 28 87 14 37 24 67 22 67 -2 0 3 17 11 37 9 20
17 44 19 52 2 9 33 106 70 216 36 110 68 207 70 215 2 8 25 78 50 155 26 77
47 145 49 150 1 6 7 24 13 40 10 27 186 567 236 725 11 36 24 74 28 85 8 22
43 127 44 135 1 7 35 111 42 130 3 8 7 20 9 25 1 6 10 32 19 59 9 26 18 56 20
65 2 9 13 42 25 73 12 32 22 66 23 78 1 11 4 20 8 20 4 0 10 17 14 38 4 20 11
42 16 48 5 7 9 16 8 20 -1 5 1 18 5 29 4 11 12 31 16 45 4 14 11 34 16 45 9
25 11 34 18 62 2 12 9 30 14 40 6 10 10 20 9 23 0 3 8 30 18 60 11 30 20 60
21 65 1 6 27 87 58 180 31 94 68 206 82 250 14 44 28 87 31 95 3 8 7 21 9 28
1 7 14 45 27 85 14 40 67 200 117 357 51 157 106 323 122 370 16 47 32 96 34
109 3 13 9 32 15 43 5 10 7 18 4 18 -3 0 1 12 9 28 7 15 17 42 21 60 l7 32
-1051 0 c-927 0 -1051 -2 -1052 -15z"/>
</g>
</svg>
