<svg width="142" height="44" viewBox="0 0 142 44" fill="none" xmlns="http://www.w3.org/2000/svg">
<path d="M71.6917 20.191C73.114 20.0062 73.9765 19.2207 73.9765 17.9504C73.9765 16.5868 73.4166 15.9168 71.7854 15.7088C70.6194 15.5466 69.3374 15.5009 67.9854 15.5009V20.3759C69.2208 20.3759 70.5262 20.3297 71.6917 20.191ZM71.6217 12.1272C76.0516 12.1965 78.0096 15.0619 78.0096 17.8806C78.0096 21.393 74.8623 23.3799 71.8082 23.6336C70.4329 23.7265 69.1043 23.7265 67.9854 23.7496V31.1439H64.0684V12.1503L71.6217 12.1272Z" fill="#3C3C3B"/>
<path d="M88.6143 20.2368C90.2931 20.0986 91.6679 19.2664 91.6679 17.95C91.6679 16.5632 91.109 15.9163 89.5001 15.7084C88.3346 15.5466 87.0292 15.5004 85.6768 15.5004V20.3523C86.6563 20.3523 87.6586 20.3297 88.6143 20.2368ZM89.3136 12.1267C93.7663 12.196 95.701 15.0614 95.701 17.8801C95.701 20.4678 93.7429 22.2242 91.5518 23.0329C93.184 24.6039 96.1677 29.6416 97.0534 31.1665H92.6707C91.7616 29.8034 89.943 25.9209 87.1919 23.7029C86.6563 23.7029 86.1197 23.726 85.6768 23.726V31.1434H81.7607V12.1498L89.3136 12.1267Z" fill="#3C3C3B"/>
<path d="M100.338 12.1267H104.254V31.1434H100.338V12.1267Z" fill="#3C3C3B"/>
<path d="M108.613 12.1267C110.449 13.0594 112.107 14.3015 113.512 15.7972L120.27 22.9866L120.316 12.1267H124.209V31.1434C122.358 30.2107 120.687 28.9646 119.27 27.4603L112.53 20.3066V31.1434H108.613V12.1267Z" fill="#3C3C3B"/>
<path d="M127.144 12.1267H141.248V15.6852H136.166V31.1434H132.249V15.6852H127.144V12.1267Z" fill="#3C3C3B"/>
<path d="M37.4238 43.4609H0V22.4542C0 10.0533 10.1428 0 22.654 0H37.4238C49.5322 0 59.3476 9.72885 59.3476 21.7299V21.7304C59.3476 33.7315 49.5322 43.4609 37.4238 43.4609Z" fill="#FF481D"/>
<path d="M21.5132 25.6694V12.1133C18.8225 12.5879 16.6035 13.8843 14.8542 16.0023C13.1055 18.1214 12.2314 20.5292 12.2314 23.2249V25.6694H21.5132ZM27.8808 37.7584H21.5132V31.9803H12.2314V37.7584H5.86377V23.2249C5.86377 18.3956 7.6196 14.2399 11.1328 10.7582C14.6449 7.27649 18.8377 5.53564 23.7104 5.53564L27.8808 5.84655V37.7584Z" fill="white"/>
<path d="M47.2066 21.6691C47.2066 19.5355 46.5859 17.6244 45.3459 15.9353C44.1049 14.2467 42.498 13.0764 40.5253 12.4245V30.9138C42.498 30.2623 44.1049 29.069 45.3459 27.3357C46.5859 25.6023 47.2066 23.7133 47.2066 21.6691ZM53.6188 21.6691C53.6188 26.1433 52.0418 29.9439 48.8879 33.069C45.734 36.1961 41.8854 37.7581 37.3415 37.7581H34.1577V5.53491H37.3415C41.7653 5.53491 45.5845 7.12809 48.7988 10.3129C52.0114 13.4983 53.6188 17.2844 53.6188 21.6691Z" fill="white"/>
</svg>
