<svg width="368" height="80" viewBox="0 0 368 80" fill="none" xmlns="http://www.w3.org/2000/svg">
<path d="M47.0022 76.6882H27.5479C13.4912 76.6882 2.0527 65.2497 2.0527 51.193V51.1042C2.57969 41.2911 7.83295 33.4306 17.23 28.377C22.7717 25.3982 28.1581 24.2332 30.2772 23.8671C35.891 11.4523 44.7334 6.65395 51.2348 4.81781C58.4296 2.78751 64.2653 3.85258 64.5094 3.89696L63.9047 7.11438C63.8492 7.10329 58.4739 6.14362 51.9947 8.00195C43.3909 10.4705 36.9783 16.5225 32.9232 25.9862L32.5516 26.8515L31.6196 26.9681C31.5586 26.9736 25.1349 27.8223 18.7 31.306C10.307 35.8492 5.8082 42.5503 5.32559 51.2373C5.34778 63.4691 15.3107 73.4153 27.5479 73.4153H47.0022V76.6882Z" fill="#FF6900"/>
<path d="M35.669 56.485C39.229 56.485 42.115 53.5991 42.115 50.0391C42.115 46.4791 39.229 43.5932 35.669 43.5932C32.1091 43.5932 29.2231 46.4791 29.2231 50.0391C29.2231 53.5991 32.1091 56.485 35.669 56.485Z" fill="#FF6900"/>
<path d="M31.2146 28.66C33.2519 28.66 34.9035 27.0084 34.9035 24.971C34.9035 22.9337 33.2519 21.2821 31.2146 21.2821C29.1772 21.2821 27.5256 22.9337 27.5256 24.971C27.5256 27.0084 29.1772 28.66 31.2146 28.66Z" fill="#FF6900"/>
<path d="M25.007 15.341C25.007 16.6335 23.9586 17.6764 22.6716 17.6764C21.3847 17.6764 20.3362 16.6279 20.3362 15.341C20.3362 14.0485 21.3847 13.0056 22.6716 13.0056C23.9586 13.0056 25.007 14.054 25.007 15.341Z" fill="#FF6900"/>
<path d="M52.9779 35.3661C55.8297 34.9033 57.7663 32.2163 57.3035 29.3645C56.8406 26.5127 54.1536 24.5761 51.3019 25.0389C48.4501 25.5018 46.5135 28.1888 46.9763 31.0405C47.4391 33.8923 50.1261 35.8289 52.9779 35.3661Z" fill="#FF6900"/>
<path d="M45.4765 78.7407C47.5138 78.7407 49.1654 77.0891 49.1654 75.0518C49.1654 73.0144 47.5138 71.3628 45.4765 71.3628C43.4391 71.3628 41.7875 73.0144 41.7875 75.0518C41.7875 77.0891 43.4391 78.7407 45.4765 78.7407Z" fill="#FF6900"/>
<path d="M66.2986 7.8253C67.7392 6.3847 67.7392 4.04902 66.2986 2.60842C64.858 1.16781 62.5224 1.16781 61.0818 2.60842C59.6412 4.04902 59.6412 6.3847 61.0818 7.8253C62.5224 9.2659 64.858 9.2659 66.2986 7.8253Z" fill="#FF6900"/>
<path d="M22.6718 78.7407C24.7091 78.7407 26.3607 77.0891 26.3607 75.0518C26.3607 73.0144 24.7091 71.3628 22.6718 71.3628C20.6344 71.3628 18.9828 73.0144 18.9828 75.0518C18.9828 77.0891 20.6344 78.7407 22.6718 78.7407Z" fill="#FF6900"/>
<path d="M51.7691 10.575C53.2097 9.13437 53.2097 6.7987 51.7691 5.35809C50.3285 3.91749 47.9928 3.91748 46.5522 5.35808C45.1116 6.79868 45.1116 9.13437 46.5522 10.575C47.9928 12.0156 50.3285 12.0156 51.7691 10.575Z" fill="#FF6900"/>
<path d="M3.68893 54.8819C5.72627 54.8819 7.37786 53.2303 7.37786 51.1929C7.37786 49.1556 5.72627 47.504 3.68893 47.504C1.65159 47.504 0 49.1556 0 51.1929C0 53.2303 1.65159 54.8819 3.68893 54.8819Z" fill="#FF6900"/>
<path d="M12.9916 37.469C15.0289 37.469 16.6805 35.8174 16.6805 33.7801C16.6805 31.7428 15.0289 30.0912 12.9916 30.0912C10.9542 30.0912 9.30265 31.7428 9.30265 33.7801C9.30265 35.8174 10.9542 37.469 12.9916 37.469Z" fill="#FF6900"/>
<path d="M3.72225 52.1471L3.65014 50.2388L34.5429 49.1238L30.2326 24.0835L51.0016 28.9595L48.2169 8.09624L50.1085 7.84662L53.2593 31.4502L32.6013 26.6019L36.7951 50.9544L3.72225 52.1471Z" fill="#FF6900"/>
<path d="M23.5147 75.49L21.8228 74.6135L35.7908 47.737L46.3639 74.7023L44.5888 75.4012L35.5467 52.3412L23.5147 75.49Z" fill="#FF6900"/>
<path d="M35.8354 51.3317L12.437 34.5567L13.5464 33.009L35.5025 48.7466L51.3954 29.5919L52.8655 30.8123L35.8354 51.3317Z" fill="#FF6900"/>
<path d="M23.3975 14.7068L21.9612 15.9632L30.7085 25.9634L32.1448 24.707L23.3975 14.7068Z" fill="#FF6900"/>
<path d="M76.3968 30.3463C76.53 30.241 76.6576 30.1411 76.8018 30.0357C77.2345 29.7362 77.3399 29.137 77.0403 28.7099C76.7408 28.2772 76.1417 28.1718 75.7145 28.4714C75.537 28.6045 75.354 28.721 75.1875 28.8652C74.7826 29.187 74.7216 29.7861 75.0544 30.191C75.3817 30.6071 75.9919 30.6681 76.3968 30.3463Z" fill="#FF6900"/>
<path d="M72.991 34.4569C73.5069 34.59 74.0173 34.2793 74.1504 33.7635C74.3168 33.1311 74.5665 32.5209 74.927 31.9717C75.2044 31.5279 75.0824 30.9454 74.6386 30.657C74.1948 30.3574 73.6012 30.4906 73.3128 30.9343C72.8357 31.661 72.4862 32.4654 72.2865 33.2975C72.17 33.8134 72.4807 34.3237 72.991 34.4569Z" fill="#FF6900"/>
<path d="M73.7954 36.7368C73.7343 37.2638 74.106 37.7408 74.633 37.8018C77.4787 38.1125 80.3578 38.29 82.377 38.29C85.378 38.29 89.067 37.9183 90.1432 37.8018C90.659 37.7297 91.0252 37.2748 90.9531 36.7645C90.9031 36.2375 90.4372 35.8547 89.9157 35.9047C87.7745 36.1321 84.668 36.3817 82.3659 36.3817C80.4188 36.3817 77.6008 36.2042 74.8382 35.9047C74.3224 35.8547 73.8564 36.2264 73.7954 36.7368Z" fill="#FF6900"/>
<path d="M116.809 50.2056C116.809 36.0212 105.714 24.3054 91.3136 22.4193C88.3292 13.1831 80.4631 5.97721 70.5668 3.51422C70.7055 4.0634 70.7832 4.62923 70.7832 5.21724C70.7832 9.12806 67.6046 12.3066 63.6938 12.3066C62.2792 12.3066 60.9645 11.8851 59.8606 11.1695C58.7567 14.3037 57.4531 18.1701 56.0885 22.5414C58.8621 23.9781 60.7648 26.8682 60.7648 30.2021C60.7648 34.9617 56.8928 38.8337 52.1333 38.8337C51.9114 38.8337 51.7006 38.817 51.4842 38.8004C49.1211 48.1364 47.0797 58.2935 46.1644 68.0012C49.7535 68.3451 52.5715 71.3739 52.5715 75.0518C52.5715 76.2001 52.2886 77.2818 51.806 78.2414H58.7179C59.1616 73.1102 60.0658 65.0223 61.4859 63.2749C62.5954 61.8992 65.5576 60.468 68.5365 59.2698V69.6155H66.6227L66.3398 78.2359H86.1657C86.5208 78.247 86.8813 78.2636 87.2419 78.2636C87.6025 78.2636 87.9575 78.2525 88.3181 78.2359H88.3735C91.8905 78.1083 95.2466 77.3983 98.3475 76.2056L98.17 69.6155H96.2562V59.3031C99.3128 60.5568 102.436 62.0989 103.556 63.5301C104.605 64.8503 105.332 68.6613 105.792 72.0452C112.504 66.9084 116.809 59.0368 116.809 50.2056ZM71.2491 36.6314C71.2269 36.3818 71.2158 36.1155 71.2158 35.8659C71.3379 31.1729 74.5997 27.1345 79.1595 26.0195L79.1373 25.8142C79.1262 25.204 79.6144 24.7048 80.2246 24.7048H84.729C85.3281 24.7159 85.8163 25.204 85.8163 25.8142L85.783 26.075C90.2263 27.2565 93.3716 31.2339 93.4881 35.8492C93.4881 36.0989 93.477 36.3485 93.4548 36.6037C94.3147 36.637 94.9859 37.3581 94.9748 38.229C94.9415 39.0999 94.2315 39.7934 93.3605 39.8433C89.7382 40.2482 86.0936 40.4646 82.438 40.4646C78.7601 40.4646 75.0878 40.2482 71.4322 39.8433C70.5613 39.81 69.8679 39.0999 69.8179 38.229C69.7902 37.408 70.4226 36.7035 71.2491 36.6314ZM93.8321 41.685C93.6435 43.1439 92.8391 44.4586 91.6242 45.2907C91.2415 47.6538 90.1542 49.8672 88.4956 51.609C85.4612 54.6434 79.8197 55.7695 76.3693 51.6811C74.7938 49.9005 73.7288 47.7148 73.3238 45.3628C71.9869 44.5862 71.116 43.2216 70.9607 41.6961C74.7716 42.162 78.6048 42.3895 82.4435 42.3784C86.2323 42.3784 90.0433 42.1509 93.8321 41.685ZM72.3475 73.4209H69.4795C68.9526 73.4209 68.5254 72.9771 68.5365 72.4557C68.5365 71.9287 68.9692 71.5126 69.4795 71.5126H72.3475C72.8745 71.5126 73.3016 71.9564 73.2905 72.4778C73.2905 72.9882 72.8745 73.4042 72.3475 73.4209ZM91.4634 69.621H73.3016V57.5279C74.4832 57.1341 75.3929 56.8567 75.7979 56.7402C75.8811 55.7861 75.8312 55.8582 76.0142 54.0665C80.0526 57.6611 85.8939 56.1911 88.8118 53.8612C88.8229 53.8723 88.8229 53.8945 88.8229 53.9111C89.0004 55.4533 88.9782 55.775 89.0725 56.7291C89.4553 56.8512 90.3151 57.123 91.4634 57.5058V69.621ZM95.291 73.4209H92.423C91.8961 73.4209 91.4689 72.9771 91.48 72.4557C91.48 71.9287 91.9127 71.5126 92.423 71.5126H95.291C95.818 71.5126 96.2451 71.9564 96.234 72.4778C96.234 72.9882 95.8124 73.4042 95.291 73.4209Z" fill="#FF6900"/>
<path d="M161.02 19.5125C158.513 18.686 156.588 18.2755 155.24 18.2755C153.066 18.2755 151.224 19.2074 149.715 21.0713C148.201 22.9352 147.446 25.2318 147.446 27.9499C147.446 28.3493 147.463 28.7432 147.491 29.1426H157.675V38.5951H147.674V78.2747H136.202V38.5951H129.046V29.1426H136.246C136.49 23.1182 138.271 18.2533 141.588 14.5533C144.906 10.8532 149.194 9.00046 154.458 9.00046C157.182 9.00046 160.499 9.59957 164.415 10.7922L161.02 19.5125Z" fill="#FF6900"/>
<path d="M171.433 78.2747V38.5452H165.147V29.1426H183.037V78.2747H171.433ZM177.351 10.1043C179.188 10.1043 180.752 10.7534 182.056 12.0514C183.354 13.3495 184.003 14.9194 184.003 16.7555C184.003 18.5917 183.354 20.156 182.056 21.4596C180.757 22.7577 179.188 23.4067 177.351 23.4067C175.515 23.4067 173.951 22.7577 172.647 21.4596C171.349 20.1615 170.7 18.5917 170.7 16.7555C170.7 14.9194 171.349 13.355 172.647 12.0514C173.951 10.7589 175.515 10.1043 177.351 10.1043Z" fill="#FF6900"/>
<path d="M240.246 57.2173H205.154C205.371 61.1336 206.713 64.1735 209.193 66.3481C211.673 68.5226 215.001 69.6043 219.195 69.6043C224.426 69.6043 228.398 68.2452 231.121 65.5215L235.57 74.2807C231.532 77.5535 225.507 79.19 217.497 79.19C210.003 79.19 204.078 76.9933 199.718 72.6054C195.358 68.2175 193.184 62.0933 193.184 54.2328C193.184 46.4944 195.574 40.226 200.362 35.4221C205.149 30.6237 210.89 28.2217 217.586 28.2217C224.714 28.2217 230.428 30.3463 234.744 34.5955C239.054 38.8447 241.212 44.2588 241.212 50.8324C241.206 52.2525 240.89 54.3771 240.246 57.2173ZM205.565 48.5968H229.696C228.902 41.4076 224.925 37.8185 217.769 37.8185C211.223 37.8129 207.157 41.4076 205.565 48.5968Z" fill="#FF6900"/>
<path d="M298.642 79.1955H294.465L280.98 49.0129L267.539 79.1955H263.317L244.784 29.1481H256.849L266.712 58.4598L278.733 29.1481H282.86L295.292 58.6429L305.937 29.1481H317.22L298.642 79.1955Z" fill="#FF6900"/>
<path d="M320.798 53.5949C320.798 46.1006 322.962 39.9986 327.289 35.2889C331.615 30.5793 337.329 28.2217 344.424 28.2217C351.885 28.2217 357.682 30.485 361.809 35.0116C365.936 39.5381 368 45.7289 368 53.5894C368 61.4166 365.898 67.6406 361.693 72.2614C357.488 76.8768 351.73 79.19 344.419 79.19C336.957 79.19 331.155 76.8601 327.011 72.1949C322.873 67.5352 320.798 61.3333 320.798 53.5949ZM332.725 53.5949C332.725 64.4232 336.625 69.8317 344.424 69.8317C348.002 69.8317 350.837 68.4227 352.934 65.6103C355.025 62.7978 356.073 58.7927 356.073 53.5894C356.073 42.9164 352.19 37.5799 344.424 37.5799C340.846 37.5799 338 38.989 335.892 41.8014C333.784 44.6194 332.725 48.5469 332.725 53.5949Z" fill="#FF6900"/>
</svg>
