<svg xmlns="http://www.w3.org/2000/svg" width="145" height="47" fill="none">
  <path fill="#FF5D03"
    d="M7.52 7.66c2.099 0 3.8-1.715 3.8-3.83S9.618 0 7.52 0C5.424 0 3.723 1.715 3.723 3.83s1.7 3.83 3.799 3.83Z" />
  <path fill="#011232"
    d="M14.809 22.355V11.23c0-.204.164-.37.366-.37h5.607c.202 0 .366.166.366.37v10.49c0 3.192 1.782 3.83 3.167 3.83 1.308 0 3.166-1.199 3.166-4.474v-9.853a.37.37 0 0 1 .367-.37h5.606c.203 0 .367.166.367.37V30.29c0 .204-.164.37-.367.37h-5.606a.368.368 0 0 1-.367-.37v-.772c0-.337-.41-.49-.638-.242-1.087 1.18-2.813 2.02-4.747 2.02-4 0-7.287-2.95-7.287-8.94Z" />
  <path fill="#FF5D03"
    d="M41.734 7.66c2.098 0 3.799-1.715 3.799-3.83S43.833 0 41.734 0c-2.098 0-3.799 1.715-3.799 3.83s1.701 3.83 3.8 3.83Z" />
  <path fill="#011232"
    d="M44.534 10.86h-5.6a.368.368 0 0 0-.366.369v19.06c0 .205.164.37.366.37h5.6a.368.368 0 0 0 .367-.37V11.23a.368.368 0 0 0-.367-.37Zm17.964 13.496 3.097 3.467c.12.14.126.35.006.49-1.555 1.779-3.931 2.983-6.997 2.983-6.415 0-10.53-4.71-10.53-10.54 0-5.831 4.121-10.54 10.53-10.54 3.066 0 5.448 1.204 6.997 2.988a.38.38 0 0 1-.006.49l-3.085 3.461a.36.36 0 0 1-.518.026c-.594-.58-1.239-.969-2.06-1.128-2.548-.497-5.07 1.306-5.462 3.893-.455 2.99 1.656 5.602 4.532 5.602 1.283 0 2.18-.42 2.984-1.204a.35.35 0 0 1 .518.012h-.006Zm58.427-5.187v11.127c0 .204-.164.37-.367.37h-5.606a.369.369 0 0 1-.367-.37v-10.49c0-3.193-1.15-3.836-2.534-3.836-1.309 0-2.851.88-2.851 4.473v9.853c0 .204-.164.37-.366.37h-5.607a.368.368 0 0 1-.366-.37v-10.49c0-3.193-1.151-3.836-2.535-3.836-1.308 0-2.85.88-2.85 4.473v9.853a.37.37 0 0 1-.367.37h-5.606a.368.368 0 0 1-.367-.37V11.229c0-.204.164-.37.367-.37h5.606a.37.37 0 0 1 .367.37v.796c0 .338.41.497.632.242 1.125-1.274 2.585-2.052 4.43-2.052 2.023 0 3.565.93 4.697 2.498.132.192.404.192.568.02 1.631-1.747 3.78-2.518 5.828-2.518 4.001 0 7.288 2.957 7.288 8.941l.006.013Z" />
  <path fill="#FF5D03"
    d="M75.796 41.295c-.158-.592-.436-1.134-.74-1.67-.613-1.07-1.352-2.07-2.123-3.052-.209-.261-.43-.523-.645-.784a.24.24 0 0 0-.183-.095.24.24 0 0 0-.184.095c-.214.261-.436.516-.644.784-.778.975-1.51 1.976-2.124 3.053-.303.535-.581 1.077-.74 1.67-.183.681-.082 1.917.222 2.548.562 1.18 1.536 1.88 2.895 2.116.107.02.215.026.322.045h.525c.107-.013.215-.026.322-.045 1.359-.23 2.332-.937 2.895-2.116.297-.63.404-1.867.221-2.549h-.019Z" />
  <path fill="#011232"
    d="M145 20.762c0 5.831-4.551 10.54-10.454 10.54-5.904 0-10.454-4.709-10.454-10.54 0-5.83 4.196-10.54 10.454-10.54 5.859 0 10.454 4.71 10.454 10.54Zm-6.333 0c0-2.632-1.821-4.792-4.121-4.792-2.301 0-4.115 2.154-4.115 4.792 0 2.639 1.82 4.793 4.115 4.793 2.294 0 4.121-2.154 4.121-4.793ZM10.327 10.86c.203 0 .367.165.367.369v20.8C10.94 41.665 5.7 43.927.372 43.526c-.177-.02-.328-.122-.366-.294v-5.028a.38.38 0 0 1 .335-.446c2.161-.159 4.013-1.3 4.013-5.092V11.23a.37.37 0 0 1 .367-.37h5.606Zm77.99.579s-8.81 23.095-10.208 26.765c-.183.44-.79.383-1.043.039a362.422 362.422 0 0 0-3.217-4.818c-.221-.319-.253-.74-.031-1.032l.569-1.058c.22-.427.303-.842.063-1.364l-7.174-18.52a.423.423 0 0 1 .385-.585h5.853c.285 0 .538.178.632.452l3.003 8.584a.667.667 0 0 0 1.264 0l3.008-8.584a.675.675 0 0 1 .632-.452h5.866c.297 0 .5.305.392.58l.006-.007Z" />
</svg>