<svg width="383" height="72" viewBox="0 0 383 72" fill="none" xmlns="http://www.w3.org/2000/svg">
<path d="M21.5451 71.2905C33.8338 71.2905 43.0902 64.1137 43.0902 52.1522V14.354H30.3228V51.0358C30.3228 55.2622 28.3278 58.8506 21.5451 58.8506C14.7624 58.8506 12.7675 55.2622 12.7675 51.0358V14.354H0V52.1522C0 64.1137 9.25643 71.2905 21.5451 71.2905Z" fill="#282828"/>
<path d="M75.2483 29.1862C69.9817 29.1862 65.9919 31.1 63.8374 34.0505V30.3026H51.8679V70.1742H63.8374V48.4043C63.8374 42.7425 66.8696 40.1907 71.2584 40.1907C75.0887 40.1907 78.2008 42.5033 78.2008 47.4474V70.1742H90.1703V45.693C90.1703 34.9277 83.3077 29.1862 75.2483 29.1862Z" fill="#282828"/>
<path d="M127.355 14.354V34.0505C124.722 31.0203 120.812 29.1862 115.466 29.1862C105.012 29.1862 96.3943 38.3567 96.3943 50.2384C96.3943 62.1201 105.012 71.2905 115.466 71.2905C120.812 71.2905 124.722 69.4564 127.355 66.4262V70.1741H139.325V14.354H127.355ZM117.86 59.967C112.354 59.967 108.364 56.2191 108.364 50.2384C108.364 44.2577 112.354 40.5097 117.86 40.5097C123.366 40.5097 127.355 44.2577 127.355 50.2384C127.355 56.2191 123.366 59.967 117.86 59.967Z" fill="#282828"/>
<path d="M158.795 55.023H187.123C187.442 53.5078 187.602 51.913 187.602 50.2384C187.602 38.1972 178.984 29.1862 167.334 29.1862C154.726 29.1862 146.108 38.3566 146.108 50.2384C146.108 62.1201 154.566 71.2906 168.211 71.2906C175.792 71.2906 181.697 68.4996 185.607 63.077L176.031 57.5748C174.435 59.3291 171.643 60.605 168.371 60.605C163.982 60.605 160.311 59.1696 158.795 55.023ZM158.556 46.0917C159.673 42.0248 162.705 39.792 167.254 39.792C170.845 39.792 174.435 41.4666 175.712 46.0917H158.556Z" fill="#282828"/>
<path d="M206.354 37.3998V30.3027H194.385V70.1742H206.354V52.1523C206.354 44.2577 213.376 42.2641 218.324 43.0615V29.5052C213.296 29.5052 207.95 32.057 206.354 37.3998Z" fill="#282828"/>
<path d="M235.879 11.9617H223.909V70.1743H235.879V11.9617Z" fill="#282828"/>
<path d="M250.641 26.794C254.551 26.794 257.823 23.5245 257.823 19.6171C257.823 15.7097 254.551 12.4402 250.641 12.4402C246.731 12.4402 243.46 15.7097 243.46 19.6171C243.46 23.5245 246.731 26.794 250.641 26.794ZM244.656 70.1742H256.626V30.3027H244.656V70.1742Z" fill="#282828"/>
<path d="M288.784 29.1862C283.518 29.1862 279.528 31.1 277.373 34.0505V30.3026H265.404V70.1742H277.373V48.4043C277.373 42.7425 280.405 40.1907 284.794 40.1907C288.625 40.1907 291.737 42.5033 291.737 47.4474V70.1742H303.706V45.693C303.706 34.9277 296.844 29.1862 288.784 29.1862Z" fill="#282828"/>
<path d="M322.618 55.023H350.946C351.265 53.5078 351.424 51.913 351.424 50.2384C351.424 38.1972 342.806 29.1862 331.156 29.1862C318.548 29.1862 309.93 38.3566 309.93 50.2384C309.93 62.1201 318.389 71.2906 332.034 71.2906C339.614 71.2906 345.519 68.4996 349.429 63.077L339.854 57.5748C338.258 59.3291 335.465 60.605 332.193 60.605C327.805 60.605 324.134 59.1696 322.618 55.023ZM322.378 46.0917C323.496 42.0248 326.528 39.792 331.076 39.792C334.667 39.792 338.258 41.4666 339.535 46.0917H322.378Z" fill="#282828"/>
<path d="M370.177 37.3998V30.3027H358.207V70.1742H370.177V52.1523C370.177 44.2577 377.199 42.2641 382.146 43.0615V29.5052C377.119 29.5052 371.773 32.057 370.177 37.3998Z" fill="#282828"/>
<path d="M382.146 11.9615V0L0.000366211 0V11.9615L382.146 11.9615Z" fill="#FE4A49"/>
</svg>
