<svg width="546" height="96" viewBox="0 0 546 96" fill="none" xmlns="http://www.w3.org/2000/svg">
<g clip-path="url(#clip0_0_3)">
<path d="M8.3 62.4H20.8C25.4 62.4 29.1 58.7 29.1 54.1V41.6C29.1 37 25.4 33.3 20.8 33.3H8.3C6.0987 33.3 3.98757 34.1745 2.43101 35.731C0.874462 37.2876 0 39.3987 0 41.6L0 54.1C0 58.7 3.7 62.4 8.3 62.4ZM39.5 95.7H52C56.6 95.7 60.3 92 60.3 87.4V74.4C60.3667 72.1333 61.2 70.2 62.8 68.6L66.5 64.9C67.258 64.0992 68.1734 63.4637 69.1888 63.0335C70.2041 62.6033 71.2974 62.3876 72.4 62.4H85.3C89.9 62.4 93.6 58.7 93.6 54.1V41.6C93.6 37 89.9 33.3 85.3 33.3H72.3C70.0333 33.3 68.1 32.4667 66.5 30.8L62.8 27.2C61.9866 26.4305 61.3438 25.4989 60.9132 24.4653C60.4825 23.4318 60.2736 22.3194 60.3 21.2V8.4C60.3 3.7 56.6 0 52 0H39.5C37.2987 0 35.1876 0.874462 33.631 2.43101C32.0745 3.98757 31.2 6.0987 31.2 8.3V20.8C31.2 25.4 34.9 29.1 39.5 29.1H52.5C54.7667 29.1667 56.7333 30 58.4 31.6L62.1 35.3C62.8827 36.0667 63.4997 36.9859 63.9125 38.0008C64.3253 39.0157 64.5253 40.1046 64.5 41.2V54.6C64.5 56.8667 63.7 58.8 62.1 60.4L58.4 64.1C57.6305 64.9134 56.6989 65.5562 55.6653 65.9868C54.6318 66.4175 53.5194 66.6264 52.4 66.6H39.6C37.3987 66.6 35.2876 67.4745 33.731 69.031C32.1745 70.5876 31.3 72.6987 31.3 74.9V87.4C31.3 92 35 95.7 39.6 95.7" fill="#1447E6"/>
<path d="M140.6 20.5C146.4 20.5 151.5 21.6333 155.9 23.9C160.233 26.1 163.6 29.2667 166 33.4C168.4 37.5333 169.6 42.4 169.6 48C169.6 53.6 168.4 58.4333 166 62.5C163.6 66.5667 160.267 69.7 156 71.9C151.218 74.1404 145.979 75.236 140.7 75.1H122.9V20.5H140.6ZM140.6 67.8C147 67.8 151.9 66.0667 155.3 62.6C157.059 60.6189 158.407 58.308 159.265 55.8017C160.123 53.2953 160.475 50.6434 160.3 48C160.3 41.6667 158.633 36.7333 155.3 33.2C151.967 29.6667 147.067 27.8667 140.6 27.8H131.7V67.8H140.6ZM218.1 52.4C218.1 54 218 55.4667 217.8 56.8H184.8C184.93 59.93 186.279 62.8851 188.559 65.0339C190.838 67.1828 193.868 68.3549 197 68.3C201.8 68.3 205.2 66.3 207.2 62.3H216.9C215.567 66.3 213.167 69.5333 209.7 72C205.988 74.6046 201.533 75.9378 197 75.8C192.8 75.8 189.1 74.8667 185.9 73C182.657 71.1677 179.99 68.4663 178.2 65.2C176.272 61.5712 175.308 57.5082 175.4 53.4C175.4 49 176.3 45.1 178.1 41.7C179.818 38.4141 182.46 35.7027 185.7 33.9C188.967 32.0333 192.733 31.1 197 31.1C201 31.1 204.633 32 207.9 33.8C211.1 35.6 213.6 38.1 215.4 41.3C217.133 44.5667 218 48.2667 218 52.4M208.7 49.6C208.7 46.2667 207.533 43.6 205.2 41.6C202.8 39.6 199.933 38.6 196.6 38.6C193.533 38.6 190.867 39.6 188.6 41.6C186.467 43.6 185.167 46.2667 184.7 49.6H208.7ZM266.6 52.4C266.6 54 266.5 55.4667 266.3 56.8H233.3C233.43 59.9477 234.793 62.918 237.094 65.0696C239.396 67.2211 242.451 68.3815 245.6 68.3C250.4 68.3 253.8 66.3 255.8 62.3H265.4C264.067 66.3 261.733 69.5333 258.4 72C254.66 74.6255 250.166 75.9596 245.6 75.8C241.4 75.8 237.667 74.8667 234.4 73C231.157 71.1677 228.49 68.4663 226.7 65.2C224.807 61.562 223.877 57.4994 224 53.4C224 49 224.9 45.1 226.7 41.7C228.418 38.4141 231.06 35.7027 234.3 33.9C237.567 32.0333 241.333 31.1 245.6 31.1C249.6 31.1 253.233 32 256.5 33.8C259.7 35.6 262.167 38.1 263.9 41.3C265.7 44.5667 266.6 48.2667 266.6 52.4ZM257.3 49.6C257.3 46.2667 256.1 43.6 253.7 41.6C251.433 39.6 248.6 38.6 245.2 38.6C242.067 38.6 239.4 39.6 237.2 41.6C235 43.6 233.7 46.2667 233.3 49.6H257.3ZM284.4 38.2C285.933 36.2 288 34.5333 290.6 33.2C293.36 31.8205 296.415 31.1341 299.5 31.2C303.081 31.2081 306.594 32.1775 309.672 34.0069C312.75 35.8363 315.281 38.4586 317 41.6C318.8 44.9333 319.7 48.8 319.7 53.2C319.748 57.2277 318.821 61.2073 317 64.8C315.428 68.1399 312.916 70.9495 309.773 72.8852C306.629 74.8209 302.99 75.7991 299.3 75.7C296.434 75.7404 293.595 75.1316 290.998 73.9194C288.4 72.7071 286.11 70.9228 284.3 68.7V95.7H275.3V31.7H284.3L284.4 38.2ZM310.7 53.2C310.7 50.2667 310.1 47.7 308.9 45.5C307.76 43.4842 306.102 41.8095 304.098 40.6492C302.094 39.4888 299.816 38.885 297.5 38.9C295.181 38.9226 292.911 39.565 290.924 40.7607C288.937 41.9563 287.306 43.6617 286.2 45.7C284.965 48.0756 284.346 50.7232 284.4 53.4C284.4 56.4 285 59.0333 286.2 61.3C287.033 62.8042 288.157 64.1282 289.505 65.1952C290.854 66.2622 292.401 67.0511 294.056 67.5162C295.712 67.9812 297.443 68.1132 299.15 67.9044C300.857 67.6956 302.505 67.1503 304 66.3C306.087 65.0583 307.784 63.257 308.9 61.1C310.1 58.9 310.7 56.3 310.7 53.3M346.7 75.7C343.033 75.7 339.7 75.0333 336.7 73.7C333.767 72.5 331.5 70.7 329.9 68.3C328.21 65.8675 327.334 62.9615 327.4 60H336.9C337.086 62.2125 338.083 64.2782 339.7 65.8C341.367 67.3333 343.7 68.1 346.7 68.1C349.7 68.1 352.1 67.3667 353.9 65.9C354.76 65.207 355.444 64.3202 355.896 63.3121C356.348 62.3041 356.555 61.2033 356.5 60.1C356.5 58.3 355.967 56.8 354.9 55.6C353.833 54.4 352.5 53.5333 350.9 53C349.3 52.3333 347.067 51.6667 344.2 51C340.667 50 337.8 49 335.6 48C333.333 47.0667 331.433 45.5667 329.9 43.5C328.221 41.1425 327.376 38.2919 327.5 35.4C327.5 32.2 328.3 29.4333 329.9 27.1C331.531 24.6994 333.824 22.8236 336.5 21.7C339.597 20.3868 342.936 19.7395 346.3 19.8C351.633 19.8 355.967 21.1333 359.3 23.8C362.633 26.4 364.5 30.0333 364.9 34.7H355C354.933 32.7 354 30.9667 352.2 29.5C350.533 28.1667 348.233 27.5 345.3 27.5C342.767 27.5 340.7 28.1333 339.1 29.4C338.286 30.0825 337.637 30.9414 337.204 31.9116C336.771 32.8819 336.564 33.938 336.6 35C336.6 36.7333 337.133 38.1333 338.2 39.2C339.2 40.2667 340.467 41.1 342 41.7C343.6 42.3667 345.767 43.0333 348.5 43.7C352.167 44.7 355.1 45.7 357.3 46.7C359.5 47.7 361.433 49.2667 363.1 51.4C364.7 53.4 365.5 56.1333 365.5 59.6C365.515 62.3866 364.753 65.1221 363.3 67.5C361.74 70.0711 359.487 72.1506 356.8 73.5C353.656 75.0251 350.194 75.7792 346.7 75.7ZM373.2 53.4C373.2 49 374.1 45.1 375.9 41.7C377.7 38.3 380.2 35.7 383.4 33.9C386.6 32.1 390.267 31.1667 394.4 31.1C399.6 31.1 403.933 32.3667 407.4 34.9C410.733 37.3 413.067 40.8333 414.4 45.5H404.7C403.967 43.3667 402.7 41.7 400.9 40.5C398.975 39.2342 396.702 38.6046 394.4 38.7C390.733 38.7 387.8 40 385.6 42.6C383.337 45.7317 382.208 49.541 382.4 53.4C382.4 58.0667 383.467 61.7333 385.6 64.4C387.8 67 390.733 68.3 394.4 68.3C399.6 68.3 403.033 66 404.7 61.4H414.3C413.222 65.7856 410.616 69.6436 406.951 72.2824C403.286 74.9213 398.801 76.1683 394.3 75.8C390.3 75.8 386.633 74.8667 383.3 73C380.168 71.1242 377.608 68.4267 375.9 65.2C374.047 61.5472 373.12 57.4951 373.2 53.4ZM442 75.8C438 75.8 434.333 74.8667 431 73C427.72 71.1826 425.017 68.4798 423.2 65.2C421.272 61.5712 420.308 57.5082 420.4 53.4C420.4 49 421.367 45.1 423.3 41.7C425.3 38.3 427.967 35.7 431.3 33.9C434.735 32.0296 438.589 31.066 442.5 31.1C446.567 31.1 450.3 32.0333 453.7 33.9C457.054 35.6872 459.828 38.3928 461.7 41.7C463.567 45.1 464.5 49 464.5 53.4C464.5 57.8 463.5 61.7 461.5 65.1C459.5 68.5 456.833 71.1667 453.5 73.1C449.997 74.9689 446.069 75.8991 442.1 75.8M442.1 68C444.433 68 446.633 67.4667 448.7 66.4C450.767 65.3333 452.4 63.6667 453.6 61.4C454.885 58.935 455.505 56.1778 455.4 53.4C455.4 50.2667 454.8 47.6 453.6 45.4C452.511 43.3344 450.843 41.6315 448.8 40.5C446.848 39.3958 444.643 38.8155 442.4 38.8155C440.157 38.8155 437.952 39.3958 436 40.5C434 41.6333 432.433 43.3 431.3 45.5C430.091 47.9886 429.507 50.7347 429.6 53.5C429.6 58.1667 430.8 61.7333 433.2 64.2C435.6 66.7333 438.6 68 442.2 68M512.6 31.8V75.1H503.6V70.1C502.108 71.8732 500.225 73.2765 498.1 74.2C495.833 75.2 493.433 75.7 490.9 75.7C487.5 75.7 484.433 75.0333 481.7 73.7C478.959 72.2765 476.723 70.0414 475.3 67.3C473.677 64.2234 472.884 60.7766 473 57.3V31.8H481.9V56C481.9 60 482.9 63 484.9 65C486.767 67 489.367 68 492.7 68C496.033 68 498.7 67 500.7 65C502.7 63 503.7 60 503.7 56V32L512.6 31.8ZM534.9 39.1V63.1C534.9 64.7 535.267 65.8667 536 66.6C536.733 67.2667 538.033 67.6 539.9 67.6H545.4V75.1H538.4C534.333 75.1 531.2 74.1667 529 72.3C526.867 70.3667 525.8 67.3 525.8 63.1V39.1H520.8V31.8H525.8V21.1H534.8V31.8H545.4V39.1H534.9Z" fill="black"/>
</g>
<defs>
<clipPath id="clip0_0_3">
<rect width="546" height="96" fill="white"/>
</clipPath>
</defs>
</svg>
