<svg width="459" height="209" viewBox="0 0 459 209" fill="none" xmlns="http://www.w3.org/2000/svg">
<g clip-path="url(#clip0_1_4)">
<path d="M306.597 49.9011L274.019 105.384L250.603 91.6341L283.18 36.1515L306.597 49.9011Z" fill="#991B1B"/>
<path d="M236.101 22.2402L189.206 102.105L165.789 88.3553L212.684 8.49045L236.101 22.2402Z" fill="#991B1B"/>
<path d="M284.292 13.7492L230.563 105.255L207.146 91.5056L260.876 -0.000315051L284.292 13.7492Z" fill="#991B1B"/>
<path fill-rule="evenodd" clip-rule="evenodd" d="M17.922 208.089V170.516H0V157.783H48.576V170.516H30.723V208.089H17.922Z" fill="#991B1B"/>
<path d="M151.066 157.783H138.265V208.089H151.066V157.783Z" fill="#991B1B"/>
<path fill-rule="evenodd" clip-rule="evenodd" d="M199.229 195.288C206.425 195.288 211.753 190.236 211.753 183.04C211.753 175.844 206.425 170.516 199.229 170.516H181.792V195.288H199.229ZM169.06 208.089V157.783H199.229C213.898 157.783 224.554 167.817 224.554 182.417C224.554 197.017 213.898 208.089 199.229 208.089H169.06Z" fill="#991B1B"/>
<path fill-rule="evenodd" clip-rule="evenodd" d="M277.081 195.288C284.554 195.288 289.744 190.166 289.744 183.04C289.744 175.844 284.484 170.516 277.081 170.516H264.418C257.222 170.516 251.893 175.844 251.893 183.04C251.893 190.236 257.083 195.288 264.418 195.288H277.081ZM264.418 208.089C249.817 208.089 239.092 197.017 239.092 182.417C239.092 167.609 249.817 157.783 264.418 157.783H277.081C292.096 157.783 302.476 167.817 302.476 182.417C302.476 197.017 291.818 208.089 277.081 208.089H264.418Z" fill="#991B1B"/>
<path fill-rule="evenodd" clip-rule="evenodd" d="M443.026 208.089L436.452 196.948H417.769L423.443 187.329H430.778L423.581 175.151L404.207 208.089H389.675L417.907 161.175C419.429 158.684 421.298 157.092 424.066 157.092C426.764 157.092 428.632 158.684 430.155 161.175L458.386 208.089H443.026Z" fill="#991B1B"/>
<path fill-rule="evenodd" clip-rule="evenodd" d="M364.688 193.004C370.846 190.513 374.72 184.978 374.72 176.743C374.72 165.188 367.525 157.783 355.416 157.783H318.466V208.089H331.198V170.516H355.416C359.637 170.516 362.197 173.075 362.197 177.227C362.197 181.31 359.637 183.94 355.416 183.94H345.072L338.774 194.665H349.811L361.575 208.089H379.703L364.688 193.004Z" fill="#991B1B"/>
<path fill-rule="evenodd" clip-rule="evenodd" d="M109.403 193.004C115.562 190.513 119.437 184.978 119.437 176.743C119.437 165.188 112.24 157.783 100.132 157.783H63.1808V208.089H75.9128V170.516H100.132C104.352 170.516 106.913 173.075 106.913 177.227C106.913 181.31 104.352 183.94 100.132 183.94H89.7868L83.4888 194.665H94.5258L106.29 208.089H124.419L109.403 193.004Z" fill="#991B1B"/>
</g>
<defs>
<clipPath id="clip0_1_4">
<rect width="459" height="209" fill="white"/>
</clipPath>
</defs>
</svg>
